<svg xmlns="http://www.w3.org/2000/svg" width="1200" height="630" viewBox="0 0 1200 630" role="img" aria-labelledby="title desc">
  <title id="title">MP3 to MP4 Studio</title>
  <desc id="desc">A clean dark preview card for a browser MP3 to MP4 converter with YouTube upload.</desc>
  <rect width="1200" height="630" fill="#020617"/>
  <rect x="90" y="78" width="1020" height="474" rx="24" fill="#0f172a" stroke="#1e293b" stroke-width="2"/>
  <rect x="136" y="126" width="92" height="92" rx="18" fill="#064e3b"/>
  <path d="M178 151v73a22 22 0 1 0 12 19v-57h42v-35h-54Zm42 23h-30v-11h30v11Z" fill="#34d399"/>
  <text x="260" y="166" fill="#f8fafc" font-family="Arial, Helvetica, sans-serif" font-size="52" font-weight="800">MP3 to MP4 Studio</text>
  <text x="260" y="220" fill="#cbd5e1" font-family="Arial, Helvetica, sans-serif" font-size="26">Browser conversion with direct YouTube upload</text>
  <rect x="136" y="286" width="420" height="160" rx="18" fill="#111827" stroke="#334155"/>
  <text x="168" y="340" fill="#f8fafc" font-family="Arial, Helvetica, sans-serif" font-size="28" font-weight="700">Convert locally</text>
  <text x="168" y="384" fill="#94a3b8" font-family="Arial, Helvetica, sans-serif" font-size="22">MP3 + cover art to compressed MP4</text>
  <rect x="644" y="286" width="420" height="160" rx="18" fill="#111827" stroke="#334155"/>
  <text x="676" y="340" fill="#f8fafc" font-family="Arial, Helvetica, sans-serif" font-size="28" font-weight="700">Upload to YouTube</text>
  <text x="676" y="384" fill="#94a3b8" font-family="Arial, Helvetica, sans-serif" font-size="22">OAuth channel selection and progress</text>
  <rect x="260" y="482" width="680" height="12" rx="6" fill="#1e293b"/>
  <rect x="260" y="482" width="510" height="12" rx="6" fill="#34d399"/>
</svg>
